<mxfile host="Electron" agent="Mozilla/5.0 (X11; Linux x86_64) AppleWebKit/537.36 (KHTML, like Gecko) draw.io/27.0.2 Chrome/134.0.6998.205 Electron/35.3.0 Safari/537.36" version="27.0.2">
  <diagram name="第 1 页" id="tEFB80QnuIrb8hjN4lpJ">
    <mxGraphModel dx="-50" dy="482" grid="1" gridSize="10" guides="1" tooltips="1" connect="1" arrows="1" fold="1" page="1" pageScale="1" pageWidth="827" pageHeight="1169" math="0" shadow="0">
      <root>
        <mxCell id="0" />
        <mxCell id="1" parent="0" />
        <mxCell id="k5o1-7JodQmKciSOHWdZ-1" value=":DataReaderListener&lt;div&gt;(SubListener)&lt;/div&gt;" style="shape=umlLifeline;perimeter=lifelinePerimeter;whiteSpace=wrap;html=1;container=1;dropTarget=0;collapsible=0;recursiveResize=0;outlineConnect=0;portConstraint=eastwest;newEdgeStyle={&quot;curved&quot;:0,&quot;rounded&quot;:0};" vertex="1" parent="1">
          <mxGeometry x="850" y="60" width="130" height="450" as="geometry" />
        </mxCell>
        <mxCell id="k5o1-7JodQmKciSOHWdZ-2" value="" style="html=1;points=[[0,0,0,0,5],[0,1,0,0,-5],[1,0,0,0,5],[1,1,0,0,-5]];perimeter=orthogonalPerimeter;outlineConnect=0;targetShapes=umlLifeline;portConstraint=eastwest;newEdgeStyle={&quot;curved&quot;:0,&quot;rounded&quot;:0};" vertex="1" parent="k5o1-7JodQmKciSOHWdZ-1">
          <mxGeometry x="60" y="80" width="10" height="60" as="geometry" />
        </mxCell>
        <mxCell id="k5o1-7JodQmKciSOHWdZ-3" value=":DataReader" style="shape=umlLifeline;perimeter=lifelinePerimeter;whiteSpace=wrap;html=1;container=1;dropTarget=0;collapsible=0;recursiveResize=0;outlineConnect=0;portConstraint=eastwest;newEdgeStyle={&quot;curved&quot;:0,&quot;rounded&quot;:0};" vertex="1" parent="1">
          <mxGeometry x="1020" y="60" width="100" height="300" as="geometry" />
        </mxCell>
        <mxCell id="k5o1-7JodQmKciSOHWdZ-4" value="" style="html=1;points=[[0,0,0,0,5],[0,1,0,0,-5],[1,0,0,0,5],[1,1,0,0,-5]];perimeter=orthogonalPerimeter;outlineConnect=0;targetShapes=umlLifeline;portConstraint=eastwest;newEdgeStyle={&quot;curved&quot;:0,&quot;rounded&quot;:0};" vertex="1" parent="k5o1-7JodQmKciSOHWdZ-3">
          <mxGeometry x="45" y="80" width="10" height="80" as="geometry" />
        </mxCell>
        <mxCell id="k5o1-7JodQmKciSOHWdZ-5" value="reader-&amp;gt;take_next_sample(&amp;amp;hello_, &amp;amp;info)" style="html=1;verticalAlign=bottom;endArrow=block;curved=0;rounded=0;" edge="1" parent="1" source="k5o1-7JodQmKciSOHWdZ-2" target="k5o1-7JodQmKciSOHWdZ-4">
          <mxGeometry width="80" relative="1" as="geometry">
            <mxPoint x="940" y="160" as="sourcePoint" />
            <mxPoint x="1020" y="160" as="targetPoint" />
            <Array as="points">
              <mxPoint x="1000" y="160" />
            </Array>
          </mxGeometry>
        </mxCell>
        <mxCell id="k5o1-7JodQmKciSOHWdZ-6" value=":DataReaderImpl" style="shape=umlLifeline;perimeter=lifelinePerimeter;whiteSpace=wrap;html=1;container=1;dropTarget=0;collapsible=0;recursiveResize=0;outlineConnect=0;portConstraint=eastwest;newEdgeStyle={&quot;curved&quot;:0,&quot;rounded&quot;:0};" vertex="1" parent="1">
          <mxGeometry x="1150" y="60" width="100" height="300" as="geometry" />
        </mxCell>
        <mxCell id="k5o1-7JodQmKciSOHWdZ-7" value="" style="html=1;points=[[0,0,0,0,5],[0,1,0,0,-5],[1,0,0,0,5],[1,1,0,0,-5]];perimeter=orthogonalPerimeter;outlineConnect=0;targetShapes=umlLifeline;portConstraint=eastwest;newEdgeStyle={&quot;curved&quot;:0,&quot;rounded&quot;:0};" vertex="1" parent="k5o1-7JodQmKciSOHWdZ-6">
          <mxGeometry x="45" y="110" width="10" height="120" as="geometry" />
        </mxCell>
        <mxCell id="k5o1-7JodQmKciSOHWdZ-10" value="read_or_take_next_sample(data, info, true)" style="html=1;align=left;spacingLeft=2;endArrow=block;rounded=0;edgeStyle=orthogonalEdgeStyle;curved=0;rounded=0;" edge="1" target="k5o1-7JodQmKciSOHWdZ-7" parent="k5o1-7JodQmKciSOHWdZ-6" source="k5o1-7JodQmKciSOHWdZ-7">
          <mxGeometry x="-1" y="-36" relative="1" as="geometry">
            <mxPoint x="61" y="160" as="sourcePoint" />
            <Array as="points">
              <mxPoint x="91" y="160" />
              <mxPoint x="91" y="190" />
            </Array>
            <mxPoint x="66" y="190" as="targetPoint" />
            <mxPoint x="-35" y="-26" as="offset" />
          </mxGeometry>
        </mxCell>
        <mxCell id="k5o1-7JodQmKciSOHWdZ-8" value="impl_-&amp;gt;take_next_sample(data, info)" style="html=1;verticalAlign=bottom;endArrow=block;curved=0;rounded=0;" edge="1" parent="1" target="k5o1-7JodQmKciSOHWdZ-7">
          <mxGeometry width="80" relative="1" as="geometry">
            <mxPoint x="1075" y="200" as="sourcePoint" />
            <mxPoint x="1190" y="200" as="targetPoint" />
          </mxGeometry>
        </mxCell>
        <mxCell id="k5o1-7JodQmKciSOHWdZ-11" value=":DataReaderHistory" style="shape=umlLifeline;perimeter=lifelinePerimeter;whiteSpace=wrap;html=1;container=1;dropTarget=0;collapsible=0;recursiveResize=0;outlineConnect=0;portConstraint=eastwest;newEdgeStyle={&quot;curved&quot;:0,&quot;rounded&quot;:0};" vertex="1" parent="1">
          <mxGeometry x="1290" y="60" width="120" height="980" as="geometry" />
        </mxCell>
        <mxCell id="k5o1-7JodQmKciSOHWdZ-12" value="" style="html=1;points=[[0,0,0,0,5],[0,1,0,0,-5],[1,0,0,0,5],[1,1,0,0,-5]];perimeter=orthogonalPerimeter;outlineConnect=0;targetShapes=umlLifeline;portConstraint=eastwest;newEdgeStyle={&quot;curved&quot;:0,&quot;rounded&quot;:0};" vertex="1" parent="k5o1-7JodQmKciSOHWdZ-11">
          <mxGeometry x="55" y="200" width="10" height="80" as="geometry" />
        </mxCell>
        <mxCell id="k5o1-7JodQmKciSOHWdZ-17" value="" style="html=1;points=[[0,0,0,0,5],[0,1,0,0,-5],[1,0,0,0,5],[1,1,0,0,-5]];perimeter=orthogonalPerimeter;outlineConnect=0;targetShapes=umlLifeline;portConstraint=eastwest;newEdgeStyle={&quot;curved&quot;:0,&quot;rounded&quot;:0};" vertex="1" parent="k5o1-7JodQmKciSOHWdZ-11">
          <mxGeometry x="55" y="330" width="10" height="50" as="geometry" />
        </mxCell>
        <mxCell id="k5o1-7JodQmKciSOHWdZ-28" value="" style="html=1;points=[[0,0,0,0,5],[0,1,0,0,-5],[1,0,0,0,5],[1,1,0,0,-5]];perimeter=orthogonalPerimeter;outlineConnect=0;targetShapes=umlLifeline;portConstraint=eastwest;newEdgeStyle={&quot;curved&quot;:0,&quot;rounded&quot;:0};" vertex="1" parent="k5o1-7JodQmKciSOHWdZ-11">
          <mxGeometry x="55" y="560" width="10" height="60" as="geometry" />
        </mxCell>
        <mxCell id="k5o1-7JodQmKciSOHWdZ-38" value="" style="html=1;points=[[0,0,0,0,5],[0,1,0,0,-5],[1,0,0,0,5],[1,1,0,0,-5]];perimeter=orthogonalPerimeter;outlineConnect=0;targetShapes=umlLifeline;portConstraint=eastwest;newEdgeStyle={&quot;curved&quot;:0,&quot;rounded&quot;:0};" vertex="1" parent="k5o1-7JodQmKciSOHWdZ-11">
          <mxGeometry x="55" y="660" width="10" height="40" as="geometry" />
        </mxCell>
        <mxCell id="k5o1-7JodQmKciSOHWdZ-44" value="" style="html=1;points=[[0,0,0,0,5],[0,1,0,0,-5],[1,0,0,0,5],[1,1,0,0,-5]];perimeter=orthogonalPerimeter;outlineConnect=0;targetShapes=umlLifeline;portConstraint=eastwest;newEdgeStyle={&quot;curved&quot;:0,&quot;rounded&quot;:0};" vertex="1" parent="k5o1-7JodQmKciSOHWdZ-11">
          <mxGeometry x="55" y="830" width="10" height="50" as="geometry" />
        </mxCell>
        <mxCell id="k5o1-7JodQmKciSOHWdZ-46" value="" style="html=1;points=[[0,0,0,0,5],[0,1,0,0,-5],[1,0,0,0,5],[1,1,0,0,-5]];perimeter=orthogonalPerimeter;outlineConnect=0;targetShapes=umlLifeline;portConstraint=eastwest;newEdgeStyle={&quot;curved&quot;:0,&quot;rounded&quot;:0};" vertex="1" parent="k5o1-7JodQmKciSOHWdZ-11">
          <mxGeometry x="55" y="900" width="10" height="40" as="geometry" />
        </mxCell>
        <mxCell id="k5o1-7JodQmKciSOHWdZ-13" value="history_.lookup_available_instance(HANDLE_NIL, false)" style="html=1;verticalAlign=bottom;endArrow=block;curved=0;rounded=0;" edge="1" parent="1">
          <mxGeometry width="80" relative="1" as="geometry">
            <mxPoint x="1205" y="280" as="sourcePoint" />
            <mxPoint x="1344.5" y="280" as="targetPoint" />
          </mxGeometry>
        </mxCell>
        <mxCell id="k5o1-7JodQmKciSOHWdZ-15" value=":&lt;span style=&quot;text-wrap-mode: nowrap; color: rgba(0, 0, 0, 0); font-family: monospace; font-size: 0px; text-align: start;&quot;&gt;%3CmxGraphModel%3E%3Croot%3E%3CmxCell%20id%3D%220%22%2F%3E%3CmxCell%20id%3D%221%22%20parent%3D%220%22%2F%3E%3CmxCell%20id%3D%222%22%20value%3D%22%3AObject%22%20style%3D%22shape%3DumlLifeline%3Bperimeter%3DlifelinePerimeter%3BwhiteSpace%3Dwrap%3Bhtml%3D1%3Bcontainer%3D1%3BdropTarget%3D0%3Bcollapsible%3D0%3BrecursiveResize%3D0%3BoutlineConnect%3D0%3BportConstraint%3Deastwest%3BnewEdgeStyle%3D%7B%26quot%3Bcurved%26quot%3B%3A0%2C%26quot%3Brounded%26quot%3B%3A0%7D%3B%22%20vertex%3D%221%22%20parent%3D%221%22%3E%3CmxGeometry%20x%3D%221295%22%20y%3D%22130%22%20width%3D%22100%22%20height%3D%22300%22%20as%3D%22geometry%22%2F%3E%3C%2FmxCell%3E%3C%2Froot%3E%3C%2FmxGraphModel%3EReadTakeCommandReadTakeCommand&lt;/span&gt;ReadTakeCommand" style="shape=umlLifeline;perimeter=lifelinePerimeter;whiteSpace=wrap;html=1;container=1;dropTarget=0;collapsible=0;recursiveResize=0;outlineConnect=0;portConstraint=eastwest;newEdgeStyle={&quot;curved&quot;:0,&quot;rounded&quot;:0};" vertex="1" parent="1">
          <mxGeometry x="1440" y="320" width="130" height="700" as="geometry" />
        </mxCell>
        <mxCell id="k5o1-7JodQmKciSOHWdZ-18" value="" style="html=1;points=[[0,0,0,0,5],[0,1,0,0,-5],[1,0,0,0,5],[1,1,0,0,-5]];perimeter=orthogonalPerimeter;outlineConnect=0;targetShapes=umlLifeline;portConstraint=eastwest;newEdgeStyle={&quot;curved&quot;:0,&quot;rounded&quot;:0};" vertex="1" parent="k5o1-7JodQmKciSOHWdZ-15">
          <mxGeometry x="60" y="70" width="10" height="620" as="geometry" />
        </mxCell>
        <mxCell id="k5o1-7JodQmKciSOHWdZ-43" value="next_instance()" style="html=1;align=left;spacingLeft=2;endArrow=block;rounded=0;edgeStyle=orthogonalEdgeStyle;curved=0;rounded=0;" edge="1" target="k5o1-7JodQmKciSOHWdZ-18" parent="k5o1-7JodQmKciSOHWdZ-15" source="k5o1-7JodQmKciSOHWdZ-18">
          <mxGeometry x="-0.6364" y="-10" relative="1" as="geometry">
            <mxPoint x="80" y="520" as="sourcePoint" />
            <Array as="points">
              <mxPoint x="110" y="520" />
              <mxPoint x="110" y="550" />
            </Array>
            <mxPoint x="85" y="550" as="targetPoint" />
            <mxPoint as="offset" />
          </mxGeometry>
        </mxCell>
        <mxCell id="k5o1-7JodQmKciSOHWdZ-16" value="cmd(*this, data_values, sample_infos, 1, states, it.second, false, false)" style="html=1;verticalAlign=bottom;endArrow=block;curved=0;rounded=0;" edge="1" parent="1">
          <mxGeometry x="0.0588" y="10" width="80" relative="1" as="geometry">
            <mxPoint x="1355" y="330" as="sourcePoint" />
            <mxPoint x="1440" y="330" as="targetPoint" />
            <mxPoint as="offset" />
          </mxGeometry>
        </mxCell>
        <mxCell id="k5o1-7JodQmKciSOHWdZ-19" value="cmd.add_instance(should_take)" style="html=1;verticalAlign=bottom;endArrow=block;curved=0;rounded=0;" edge="1" parent="1">
          <mxGeometry width="80" relative="1" as="geometry">
            <mxPoint x="1355" y="410" as="sourcePoint" />
            <mxPoint x="1500" y="410" as="targetPoint" />
          </mxGeometry>
        </mxCell>
        <mxCell id="k5o1-7JodQmKciSOHWdZ-21" value="add_sample(*it, remove_change)" style="html=1;align=left;spacingLeft=2;endArrow=block;rounded=0;edgeStyle=orthogonalEdgeStyle;curved=0;rounded=0;" edge="1" target="k5o1-7JodQmKciSOHWdZ-18" parent="1">
          <mxGeometry x="-1" y="-51" relative="1" as="geometry">
            <mxPoint x="1510" y="460" as="sourcePoint" />
            <Array as="points">
              <mxPoint x="1540" y="460" />
              <mxPoint x="1540" y="490" />
            </Array>
            <mxPoint x="1515" y="490" as="targetPoint" />
            <mxPoint x="-50" y="-41" as="offset" />
          </mxGeometry>
        </mxCell>
        <mxCell id="k5o1-7JodQmKciSOHWdZ-23" value="deserialize_sample(item)" style="html=1;align=left;spacingLeft=2;endArrow=block;rounded=0;edgeStyle=orthogonalEdgeStyle;curved=0;rounded=0;" edge="1" parent="1">
          <mxGeometry x="-1" y="-22" relative="1" as="geometry">
            <mxPoint x="1510" y="510" as="sourcePoint" />
            <Array as="points">
              <mxPoint x="1540" y="510" />
              <mxPoint x="1540" y="540" />
            </Array>
            <mxPoint x="1510" y="540" as="targetPoint" />
            <mxPoint x="-20" y="-12" as="offset" />
          </mxGeometry>
        </mxCell>
        <mxCell id="k5o1-7JodQmKciSOHWdZ-24" value=":HelloWorldPubSubType" style="shape=umlLifeline;perimeter=lifelinePerimeter;whiteSpace=wrap;html=1;container=1;dropTarget=0;collapsible=0;recursiveResize=0;outlineConnect=0;portConstraint=eastwest;newEdgeStyle={&quot;curved&quot;:0,&quot;rounded&quot;:0};" vertex="1" parent="1">
          <mxGeometry x="1710" y="60" width="140" height="730" as="geometry" />
        </mxCell>
        <mxCell id="k5o1-7JodQmKciSOHWdZ-25" value="" style="html=1;points=[[0,0,0,0,5],[0,1,0,0,-5],[1,0,0,0,5],[1,1,0,0,-5]];perimeter=orthogonalPerimeter;outlineConnect=0;targetShapes=umlLifeline;portConstraint=eastwest;newEdgeStyle={&quot;curved&quot;:0,&quot;rounded&quot;:0};" vertex="1" parent="k5o1-7JodQmKciSOHWdZ-24">
          <mxGeometry x="64" y="500" width="10" height="50" as="geometry" />
        </mxCell>
        <mxCell id="k5o1-7JodQmKciSOHWdZ-26" value="type_-&amp;gt;deserialize(payload, data_values_.buffer()[current_slot_])" style="html=1;verticalAlign=bottom;endArrow=block;curved=0;rounded=0;" edge="1" parent="1" target="k5o1-7JodQmKciSOHWdZ-25">
          <mxGeometry width="80" relative="1" as="geometry">
            <mxPoint x="1510" y="580" as="sourcePoint" />
            <mxPoint x="1644" y="580" as="targetPoint" />
          </mxGeometry>
        </mxCell>
        <mxCell id="k5o1-7JodQmKciSOHWdZ-29" value="history_.change_was_processed_nts(change, added)" style="html=1;verticalAlign=bottom;endArrow=block;curved=0;rounded=0;" edge="1" parent="1" source="k5o1-7JodQmKciSOHWdZ-18" target="k5o1-7JodQmKciSOHWdZ-28">
          <mxGeometry width="80" relative="1" as="geometry">
            <mxPoint x="1480" y="640" as="sourcePoint" />
            <mxPoint x="1365" y="640" as="targetPoint" />
            <Array as="points">
              <mxPoint x="1460" y="640" />
            </Array>
          </mxGeometry>
        </mxCell>
        <mxCell id="k5o1-7JodQmKciSOHWdZ-30" value=":StatelessReader" style="shape=umlLifeline;perimeter=lifelinePerimeter;whiteSpace=wrap;html=1;container=1;dropTarget=0;collapsible=0;recursiveResize=0;outlineConnect=0;portConstraint=eastwest;newEdgeStyle={&quot;curved&quot;:0,&quot;rounded&quot;:0};" vertex="1" parent="1">
          <mxGeometry x="1590" y="60" width="100" height="710" as="geometry" />
        </mxCell>
        <mxCell id="k5o1-7JodQmKciSOHWdZ-34" value="" style="html=1;points=[[0,0,0,0,5],[0,1,0,0,-5],[1,0,0,0,5],[1,1,0,0,-5]];perimeter=orthogonalPerimeter;outlineConnect=0;targetShapes=umlLifeline;portConstraint=eastwest;newEdgeStyle={&quot;curved&quot;:0,&quot;rounded&quot;:0};" vertex="1" parent="k5o1-7JodQmKciSOHWdZ-30">
          <mxGeometry x="45" y="360" width="10" height="60" as="geometry" />
        </mxCell>
        <mxCell id="k5o1-7JodQmKciSOHWdZ-36" value="" style="html=1;points=[[0,0,0,0,5],[0,1,0,0,-5],[1,0,0,0,5],[1,1,0,0,-5]];perimeter=orthogonalPerimeter;outlineConnect=0;targetShapes=umlLifeline;portConstraint=eastwest;newEdgeStyle={&quot;curved&quot;:0,&quot;rounded&quot;:0};" vertex="1" parent="k5o1-7JodQmKciSOHWdZ-30">
          <mxGeometry x="45" y="650" width="10" height="30" as="geometry" />
        </mxCell>
        <mxCell id="k5o1-7JodQmKciSOHWdZ-32" value="reader_-&amp;gt;begin_sample_access_nts(change, wp, is_future_change)" style="html=1;verticalAlign=bottom;endArrow=block;curved=0;rounded=0;" edge="1" parent="1" target="k5o1-7JodQmKciSOHWdZ-34">
          <mxGeometry width="80" relative="1" as="geometry">
            <mxPoint x="1510" y="440" as="sourcePoint" />
            <mxPoint x="1620" y="440" as="targetPoint" />
          </mxGeometry>
        </mxCell>
        <mxCell id="k5o1-7JodQmKciSOHWdZ-37" value="reader_-&amp;gt;end_sample_access_nts(change, wp, added)" style="html=1;verticalAlign=bottom;endArrow=block;curved=0;rounded=0;" edge="1" parent="1" source="k5o1-7JodQmKciSOHWdZ-18" target="k5o1-7JodQmKciSOHWdZ-36">
          <mxGeometry width="80" relative="1" as="geometry">
            <mxPoint x="1520" y="710" as="sourcePoint" />
            <mxPoint x="1750" y="730" as="targetPoint" />
          </mxGeometry>
        </mxCell>
        <mxCell id="k5o1-7JodQmKciSOHWdZ-39" value="history_.remove_change_sub(change, it)" style="html=1;verticalAlign=bottom;endArrow=block;curved=0;rounded=0;" edge="1" parent="1">
          <mxGeometry width="80" relative="1" as="geometry">
            <mxPoint x="1500" y="740" as="sourcePoint" />
            <mxPoint x="1355" y="740" as="targetPoint" />
          </mxGeometry>
        </mxCell>
        <mxCell id="k5o1-7JodQmKciSOHWdZ-40" value="" style="html=1;points=[[0,0,0,0,5],[0,1,0,0,-5],[1,0,0,0,5],[1,1,0,0,-5]];perimeter=orthogonalPerimeter;outlineConnect=0;targetShapes=umlLifeline;portConstraint=eastwest;newEdgeStyle={&quot;curved&quot;:0,&quot;rounded&quot;:0};" vertex="1" parent="1">
          <mxGeometry x="1345" y="780" width="10" height="50" as="geometry" />
        </mxCell>
        <mxCell id="k5o1-7JodQmKciSOHWdZ-41" value="history_.instance_viewed_nts(instance_-&amp;gt;second)" style="html=1;verticalAlign=bottom;endArrow=block;curved=0;rounded=0;" edge="1" parent="1">
          <mxGeometry width="80" relative="1" as="geometry">
            <mxPoint x="1500" y="800" as="sourcePoint" />
            <mxPoint x="1355" y="800" as="targetPoint" />
          </mxGeometry>
        </mxCell>
        <mxCell id="k5o1-7JodQmKciSOHWdZ-45" value="history_.check_and_remove_instance(instance_)" style="html=1;verticalAlign=bottom;endArrow=block;curved=0;rounded=0;" edge="1" parent="1">
          <mxGeometry width="80" relative="1" as="geometry">
            <mxPoint x="1500" y="910" as="sourcePoint" />
            <mxPoint x="1355" y="910" as="targetPoint" />
          </mxGeometry>
        </mxCell>
        <mxCell id="k5o1-7JodQmKciSOHWdZ-47" value="history_.next_available_instance_nts(handle_, instance_)" style="html=1;verticalAlign=bottom;endArrow=block;curved=0;rounded=0;" edge="1" parent="1">
          <mxGeometry width="80" relative="1" as="geometry">
            <mxPoint x="1500" y="980" as="sourcePoint" />
            <mxPoint x="1355" y="980" as="targetPoint" />
          </mxGeometry>
        </mxCell>
      </root>
    </mxGraphModel>
  </diagram>
</mxfile>
